<?xml version="1.0" standalone="no"?><!DOCTYPE svg PUBLIC "-//W3C//DTD SVG 1.1//EN" "http://www.w3.org/Graphics/SVG/1.1/DTD/svg11.dtd"><svg t="1580907749305" class="icon" viewBox="0 0 1027 1024" version="1.1" xmlns="http://www.w3.org/2000/svg" p-id="6354" xmlns:xlink="http://www.w3.org/1999/xlink" width="200.5859375" height="200"><defs><style type="text/css"></style></defs><path d="M65.612979 36.019954h339.420986c18.295927 0 34.699171 6.939834 46.686158 18.926821s18.926821 28.390231 18.926821 46.686158v339.420986c0 18.295927-6.939834 34.699171-18.926821 46.055264v0.630894c-11.986987 11.356092-28.390231 18.926821-46.686158 18.926821H65.612979c-18.295927 0-34.699171-7.570728-46.055264-18.926821-11.986987-11.986987-19.557715-28.390231-19.557715-46.686158V101.632933c0-18.295927 7.570728-34.699171 19.557715-46.686158 11.356092-11.986987 27.759337-18.926821 46.055264-18.926821z m339.420986 46.055264H65.612979c-5.047152 0-10.094304 2.523576-13.248775 5.678047-3.785364 3.785364-6.30894 8.201622-6.30894 13.879668v339.420986c0 5.047152 2.523576 10.094304 6.30894 13.879669 3.15447 3.15447 8.201622 5.678046 13.248775 5.678046h339.420986c5.678046 0 10.094304-2.523576 13.879669-5.678046 3.785364-3.785364 5.678046-8.832516 5.678046-13.879669V101.632933c0-5.678046-2.523576-10.094304-5.678046-13.879668-3.785364-3.15447-8.201622-5.678046-13.879669-5.678047zM65.612979 553.353056h339.420986c18.295927 0 34.699171 6.939834 46.686158 18.926821s18.926821 28.390231 18.926821 46.686158v339.420986c0 18.295927-6.939834 34.699171-18.926821 46.686158s-28.390231 18.926821-46.686158 18.926821H65.612979c-18.295927 0-34.699171-6.939834-46.055264-18.926821-11.986987-11.986987-19.557715-28.390231-19.557715-46.686158V618.966035c0-18.295927 7.570728-34.699171 19.557715-46.686158 11.356092-11.986987 27.759337-18.926821 46.055264-18.926821z m339.420986 46.055264H65.612979c-5.047152 0-10.094304 2.523576-13.248775 5.678046-3.785364 3.785364-6.30894 8.201622-6.30894 13.879669v339.420986c0 5.678046 2.523576 10.094304 6.30894 13.879669 3.15447 3.15447 8.201622 5.678046 13.248775 5.678046h339.420986c5.678046 0 10.094304-2.523576 13.879669-5.678046 3.785364-3.785364 5.678046-8.201622 5.678046-13.879669V618.966035c0-5.678046-1.892682-10.094304-5.678046-13.879669-3.785364-3.15447-8.201622-5.678046-13.879669-5.678046zM830.256539 20.247604l183.590162 213.242181 1.892682 1.892682v0.630894c8.832516 11.356092 13.248775 25.866655 11.986986 39.746324-1.261788 15.141457-8.201622 29.652019-20.188609 39.746323l-1.892682 1.892682-211.349499 181.69748c-11.986987 10.725198-27.128443 15.141457-42.269899 13.879668-15.141457-0.630894-29.021125-7.570728-39.746324-19.557714L528.689194 280.175943c-10.725198-12.617881-15.141457-27.759337-13.879668-42.2699 1.261788-15.141457 7.570728-29.652019 20.188609-40.377218l212.611286-183.590162c12.617881-10.094304 27.759337-14.510563 42.900794-13.879668 14.510563 1.261788 29.021125 8.201622 39.746324 20.188609z m146.367414 241.001518L794.926473 50.530517c-1.892682-2.523576-5.047152-3.785364-8.201622-4.416258-3.15447 0-6.30894 1.261788-8.832516 3.15447L564.650154 232.858891c-1.892682 1.892682-3.785364 5.047152-3.785364 8.201622s0.630894 6.30894 2.523576 8.832516l183.590161 213.242181c2.523576 2.523576 5.047152 3.785364 8.201623 3.785365 3.15447 0.630894 6.30894-0.630894 8.832516-2.523577l213.242181-183.590161c2.523576-2.523576 3.785364-5.678046 4.416258-8.201623 0-3.15447-0.630894-6.30894-3.15447-8.832516l-1.892682-2.523576zM601.242007 553.353056h339.420987c18.295927 0 34.699171 6.939834 46.686158 18.926821s19.557715 28.390231 19.557714 46.686158v339.420986c0 18.295927-7.570728 34.699171-19.557714 46.686158s-28.390231 18.926821-46.686158 18.926821H601.242007c-18.295927 0-34.699171-6.939834-46.055264-18.926821-11.986987-11.986987-19.557715-28.390231-19.557714-46.686158V618.966035c0-18.295927 7.570728-34.699171 19.557714-46.686158 11.356092-11.986987 27.759337-18.926821 46.055264-18.926821z m339.420987 46.055264H601.242007c-5.047152 0-10.094304 2.523576-13.248774 5.678046h-0.630894c-3.15447 3.785364-5.047152 8.201622-5.047152 13.879669v339.420986c0 5.678046 1.892682 10.094304 5.047152 13.879669h0.630894c3.15447 3.15447 8.201622 5.678046 13.248774 5.678046h339.420987c5.678046 0 10.094304-2.523576 13.879668-5.678046 3.785364-3.785364 5.678046-8.201622 5.678046-13.879669V618.966035c0-5.678046-1.892682-10.094304-5.678046-13.879669-3.785364-3.15447-8.201622-5.678046-13.879668-5.678046z" p-id="6355" fill="#d81e06"></path></svg>